<svg data-name="Layer 1" viewBox="0 0 64 64" xmlns="http://www.w3.org/2000/svg"><path d="M52.57 41.55h-2.19a.59.59 0 0 0-.57.42l-1.64 5.26A6.71 6.71 0 0 1 41.76 52H29.22a3.37 3.37 0 0 1-3.38-3.37v-14.2h9.08a4.31 4.31 0 0 1 4.32 4.32v1.11a.59.59 0 0 0 .6.59h1.86a.59.59 0 0 0 .6-.59V23.52a.6.6 0 0 0-.6-.6h-1.86a.6.6 0 0 0-.6.6v1.74a4.32 4.32 0 0 1-4.32 4.32h-9.08V15.42a3.37 3.37 0 0 1 3.38-3.37h11.91a5.57 5.57 0 0 1 5.57 5.57V21a.59.59 0 0 0 .6.59h2.18a.58.58 0 0 0 .59-.54L51 9.49A1.38 1.38 0 0 0 49.61 8H11.78a1 1 0 0 0-.95.95v2.14a1 1 0 0 0 .95 1h2.42a3.37 3.37 0 0 1 3.37 3.37v33.12A3.37 3.37 0 0 1 14.2 52h-2.42a1 1 0 0 0-.95 1v2.14a1 1 0 0 0 .95 1h38.14a1.38 1.38 0 0 0 1.36-1.17l1.88-12.6a.59.59 0 0 0-.59-.82Z" fill="#00ad2b" class="fill-4fbe9f"></path><path d="M52.57 41.55h-2.19a.59.59 0 0 0-.57.42l-1.64 5.26A6.71 6.71 0 0 1 41.76 52H29.22a3.37 3.37 0 0 1-3.38-3.37v-14.2h-5.38a1.13 1.13 0 0 0-1.13 1.13v.22a1.14 1.14 0 0 0 1.13 1.13A1.12 1.12 0 0 1 21.58 38a5.15 5.15 0 0 1-1.51 3.65 8.53 8.53 0 0 0-2.5 6v.87A3.37 3.37 0 0 1 14.2 52h-2.42a1 1 0 0 0-.95 1v2.14a1 1 0 0 0 .95 1h38.14a1.38 1.38 0 0 0 1.36-1.17l1.88-12.6a.59.59 0 0 0-.59-.82Z" fill="#ff780a" class="fill-09816c"></path></svg>